<mxfile host="app.diagrams.net" modified="2020-03-31T06:43:26.371Z" agent="5.0 (X11; Linux x86_64) AppleWebKit/537.36 (KHTML, like Gecko) Chrome/77.0.3865.120 Safari/537.36" etag="1upiNI2LQQGazlBoBHWb" version="12.9.5" type="github">
  <diagram id="X-R3iJYTTaz-wiHU9ndh" name="Page-1">
    <mxGraphModel dx="1035" dy="594" grid="1" gridSize="10" guides="1" tooltips="1" connect="1" arrows="1" fold="1" page="1" pageScale="1" pageWidth="827" pageHeight="1169" math="0" shadow="0">
      <root>
        <mxCell id="0" />
        <mxCell id="1" parent="0" />
        <mxCell id="8ziXm97vREXkAXsJvEZM-1" value="&lt;font style=&quot;font-size: 14px&quot;&gt;Web&lt;/font&gt;" style="shape=umlLifeline;perimeter=lifelinePerimeter;whiteSpace=wrap;html=1;container=1;collapsible=0;recursiveResize=0;outlineConnect=0;" vertex="1" parent="1">
          <mxGeometry x="80" y="80" width="100" height="410" as="geometry" />
        </mxCell>
        <mxCell id="8ziXm97vREXkAXsJvEZM-7" value="" style="html=1;points=[];perimeter=orthogonalPerimeter;" vertex="1" parent="8ziXm97vREXkAXsJvEZM-1">
          <mxGeometry x="45" y="70" width="10" height="70" as="geometry" />
        </mxCell>
        <mxCell id="8ziXm97vREXkAXsJvEZM-2" value="&lt;span style=&quot;font-size: 14px&quot;&gt;后台服务&lt;/span&gt;" style="shape=umlLifeline;perimeter=lifelinePerimeter;whiteSpace=wrap;html=1;container=1;collapsible=0;recursiveResize=0;outlineConnect=0;" vertex="1" parent="1">
          <mxGeometry x="240" y="80" width="100" height="410" as="geometry" />
        </mxCell>
        <mxCell id="8ziXm97vREXkAXsJvEZM-3" value="&lt;span style=&quot;font-size: 14px&quot;&gt;DB&lt;/span&gt;" style="shape=umlLifeline;perimeter=lifelinePerimeter;whiteSpace=wrap;html=1;container=1;collapsible=0;recursiveResize=0;outlineConnect=0;" vertex="1" parent="1">
          <mxGeometry x="400" y="80" width="100" height="410" as="geometry" />
        </mxCell>
        <mxCell id="8ziXm97vREXkAXsJvEZM-20" value="" style="html=1;points=[];perimeter=orthogonalPerimeter;" vertex="1" parent="8ziXm97vREXkAXsJvEZM-3">
          <mxGeometry x="45" y="176" width="10" height="40" as="geometry" />
        </mxCell>
        <mxCell id="8ziXm97vREXkAXsJvEZM-4" value="&lt;span style=&quot;font-size: 14px&quot;&gt;SQL Server&lt;/span&gt;" style="shape=umlLifeline;perimeter=lifelinePerimeter;whiteSpace=wrap;html=1;container=1;collapsible=0;recursiveResize=0;outlineConnect=0;" vertex="1" parent="1">
          <mxGeometry x="560" y="80" width="100" height="410" as="geometry" />
        </mxCell>
        <mxCell id="8ziXm97vREXkAXsJvEZM-24" value="" style="html=1;points=[];perimeter=orthogonalPerimeter;" vertex="1" parent="8ziXm97vREXkAXsJvEZM-4">
          <mxGeometry x="45" y="231" width="10" height="40" as="geometry" />
        </mxCell>
        <mxCell id="8ziXm97vREXkAXsJvEZM-5" value="&lt;font style=&quot;font-size: 12px&quot;&gt;上传文件，请求数据比对&lt;/font&gt;" style="html=1;verticalAlign=bottom;endArrow=block;" edge="1" parent="1">
          <mxGeometry width="80" relative="1" as="geometry">
            <mxPoint x="140" y="159" as="sourcePoint" />
            <mxPoint x="280" y="159" as="targetPoint" />
          </mxGeometry>
        </mxCell>
        <mxCell id="8ziXm97vREXkAXsJvEZM-6" value="&lt;font style=&quot;font-size: 12px&quot;&gt;上传文件，请求数据比对&lt;/font&gt;" style="html=1;verticalAlign=bottom;endArrow=block;" edge="1" parent="1">
          <mxGeometry width="80" relative="1" as="geometry">
            <mxPoint x="70" y="510" as="sourcePoint" />
            <mxPoint x="229.5" y="510" as="targetPoint" />
          </mxGeometry>
        </mxCell>
        <mxCell id="8ziXm97vREXkAXsJvEZM-8" value="" style="html=1;points=[];perimeter=orthogonalPerimeter;comic=0;" vertex="1" parent="1">
          <mxGeometry x="285" y="150" width="10" height="320" as="geometry" />
        </mxCell>
        <mxCell id="8ziXm97vREXkAXsJvEZM-11" value="" style="html=1;points=[];perimeter=orthogonalPerimeter;fontSize=12;" vertex="1" parent="1">
          <mxGeometry x="20" y="490" width="10" height="40" as="geometry" />
        </mxCell>
        <mxCell id="8ziXm97vREXkAXsJvEZM-12" value="self call" style="edgeStyle=orthogonalEdgeStyle;html=1;align=left;spacingLeft=2;endArrow=block;rounded=0;entryX=1;entryY=0;fontSize=12;" edge="1" target="8ziXm97vREXkAXsJvEZM-11" parent="1">
          <mxGeometry relative="1" as="geometry">
            <mxPoint x="25" y="470" as="sourcePoint" />
            <Array as="points">
              <mxPoint x="50" y="470" />
            </Array>
          </mxGeometry>
        </mxCell>
        <mxCell id="8ziXm97vREXkAXsJvEZM-16" value="保存文件" style="edgeStyle=orthogonalEdgeStyle;html=1;align=left;spacingLeft=2;endArrow=block;rounded=0;entryX=1;entryY=0;" edge="1" parent="1" target="8ziXm97vREXkAXsJvEZM-15">
          <mxGeometry relative="1" as="geometry">
            <mxPoint x="295" y="160" as="sourcePoint" />
            <Array as="points">
              <mxPoint x="320" y="160" />
            </Array>
          </mxGeometry>
        </mxCell>
        <mxCell id="8ziXm97vREXkAXsJvEZM-18" value="文件接收的结果" style="html=1;verticalAlign=bottom;endArrow=open;dashed=1;endSize=8;fontSize=12;" edge="1" parent="1">
          <mxGeometry relative="1" as="geometry">
            <mxPoint x="280" y="210" as="sourcePoint" />
            <mxPoint x="140" y="210" as="targetPoint" />
          </mxGeometry>
        </mxCell>
        <mxCell id="8ziXm97vREXkAXsJvEZM-15" value="" style="html=1;points=[];perimeter=orthogonalPerimeter;" vertex="1" parent="1">
          <mxGeometry x="290" y="174" width="10" height="20" as="geometry" />
        </mxCell>
        <mxCell id="8ziXm97vREXkAXsJvEZM-19" value="&lt;font style=&quot;font-size: 12px&quot;&gt;根据orgId查询数据&lt;/font&gt;" style="html=1;verticalAlign=bottom;endArrow=block;" edge="1" parent="1">
          <mxGeometry width="80" relative="1" as="geometry">
            <mxPoint x="300" y="268" as="sourcePoint" />
            <mxPoint x="440" y="268" as="targetPoint" />
          </mxGeometry>
        </mxCell>
        <mxCell id="8ziXm97vREXkAXsJvEZM-22" value="查询结果" style="html=1;verticalAlign=bottom;endArrow=open;dashed=1;endSize=8;fontSize=12;" edge="1" parent="1">
          <mxGeometry relative="1" as="geometry">
            <mxPoint x="440" y="286" as="sourcePoint" />
            <mxPoint x="300" y="286" as="targetPoint" />
          </mxGeometry>
        </mxCell>
        <mxCell id="8ziXm97vREXkAXsJvEZM-23" value="文件接收的结果" style="html=1;verticalAlign=bottom;endArrow=open;dashed=1;endSize=8;fontSize=12;" edge="1" parent="1">
          <mxGeometry relative="1" as="geometry">
            <mxPoint x="425" y="520" as="sourcePoint" />
            <mxPoint x="285" y="520" as="targetPoint" />
          </mxGeometry>
        </mxCell>
        <mxCell id="8ziXm97vREXkAXsJvEZM-25" value="&lt;span style=&quot;font-size: 12px&quot;&gt;使用bak文件恢复数据&lt;/span&gt;" style="html=1;verticalAlign=bottom;endArrow=block;" edge="1" parent="1">
          <mxGeometry width="80" relative="1" as="geometry">
            <mxPoint x="297" y="321" as="sourcePoint" />
            <mxPoint x="602" y="321" as="targetPoint" />
          </mxGeometry>
        </mxCell>
        <mxCell id="8ziXm97vREXkAXsJvEZM-26" value="数据恢复结果" style="html=1;verticalAlign=bottom;endArrow=open;dashed=1;endSize=8;fontSize=12;" edge="1" parent="1">
          <mxGeometry relative="1" as="geometry">
            <mxPoint x="600" y="341" as="sourcePoint" />
            <mxPoint x="300" y="341" as="targetPoint" />
          </mxGeometry>
        </mxCell>
        <mxCell id="8ziXm97vREXkAXsJvEZM-29" value="&lt;span style=&quot;font-size: 12px&quot;&gt;生成比对任务&lt;/span&gt;" style="html=1;verticalAlign=bottom;endArrow=block;" edge="1" parent="1">
          <mxGeometry width="80" relative="1" as="geometry">
            <mxPoint x="305" y="220" as="sourcePoint" />
            <mxPoint x="445" y="220" as="targetPoint" />
          </mxGeometry>
        </mxCell>
        <mxCell id="8ziXm97vREXkAXsJvEZM-30" value="" style="html=1;points=[];perimeter=orthogonalPerimeter;" vertex="1" parent="1">
          <mxGeometry x="445" y="210" width="10" height="29" as="geometry" />
        </mxCell>
        <mxCell id="8ziXm97vREXkAXsJvEZM-31" value="" style="html=1;verticalAlign=bottom;endArrow=open;dashed=1;endSize=8;fontSize=12;" edge="1" parent="1">
          <mxGeometry relative="1" as="geometry">
            <mxPoint x="445" y="230" as="sourcePoint" />
            <mxPoint x="305" y="230" as="targetPoint" />
          </mxGeometry>
        </mxCell>
        <mxCell id="8ziXm97vREXkAXsJvEZM-35" value="" style="html=1;points=[];perimeter=orthogonalPerimeter;" vertex="1" parent="1">
          <mxGeometry x="605" y="361" width="10" height="39" as="geometry" />
        </mxCell>
        <mxCell id="8ziXm97vREXkAXsJvEZM-36" value="&lt;span style=&quot;font-size: 12px&quot;&gt;查询需要比对的数据&lt;/span&gt;" style="html=1;verticalAlign=bottom;endArrow=block;" edge="1" parent="1">
          <mxGeometry width="80" relative="1" as="geometry">
            <mxPoint x="297" y="371" as="sourcePoint" />
            <mxPoint x="602" y="371" as="targetPoint" />
          </mxGeometry>
        </mxCell>
        <mxCell id="8ziXm97vREXkAXsJvEZM-37" value="查询结果" style="html=1;verticalAlign=bottom;endArrow=open;dashed=1;endSize=8;fontSize=12;" edge="1" parent="1">
          <mxGeometry relative="1" as="geometry">
            <mxPoint x="600" y="391" as="sourcePoint" />
            <mxPoint x="300" y="391" as="targetPoint" />
          </mxGeometry>
        </mxCell>
        <mxCell id="8ziXm97vREXkAXsJvEZM-41" value="" style="html=1;points=[];perimeter=orthogonalPerimeter;fontSize=12;" vertex="1" parent="1">
          <mxGeometry x="290" y="420" width="10" height="20" as="geometry" />
        </mxCell>
        <mxCell id="8ziXm97vREXkAXsJvEZM-42" value="数据比对" style="edgeStyle=orthogonalEdgeStyle;html=1;align=left;spacingLeft=2;endArrow=block;rounded=0;entryX=1;entryY=0;fontSize=12;" edge="1" parent="1" target="8ziXm97vREXkAXsJvEZM-41">
          <mxGeometry relative="1" as="geometry">
            <mxPoint x="295" y="400" as="sourcePoint" />
            <Array as="points">
              <mxPoint x="320" y="400" />
            </Array>
          </mxGeometry>
        </mxCell>
        <mxCell id="8ziXm97vREXkAXsJvEZM-43" value="&lt;span style=&quot;font-size: 12px&quot;&gt;保存比对结果&lt;/span&gt;" style="html=1;verticalAlign=bottom;endArrow=block;" edge="1" parent="1">
          <mxGeometry width="80" relative="1" as="geometry">
            <mxPoint x="305" y="449" as="sourcePoint" />
            <mxPoint x="445" y="449" as="targetPoint" />
          </mxGeometry>
        </mxCell>
        <mxCell id="8ziXm97vREXkAXsJvEZM-44" value="" style="html=1;points=[];perimeter=orthogonalPerimeter;" vertex="1" parent="1">
          <mxGeometry x="445" y="439" width="10" height="29" as="geometry" />
        </mxCell>
        <mxCell id="8ziXm97vREXkAXsJvEZM-45" value="" style="html=1;verticalAlign=bottom;endArrow=open;dashed=1;endSize=8;fontSize=12;" edge="1" parent="1">
          <mxGeometry relative="1" as="geometry">
            <mxPoint x="445" y="459" as="sourcePoint" />
            <mxPoint x="305" y="459" as="targetPoint" />
          </mxGeometry>
        </mxCell>
      </root>
    </mxGraphModel>
  </diagram>
</mxfile>
